{
	"asset":{
		"generator":"Khronos glTF Blender I/O v4.0.44",
		"version":"2.0"
	},
	"extensionsUsed":[
		"KHR_lights_punctual"
	],
	"extensionsRequired":[
		"KHR_lights_punctual"
	],
	"extensions":{
		"KHR_lights_punctual":{
			"lights":[
				{
					"color":[
						1,
						1,
						1
					],
					"intensity":54351.41306588226,
					"type":"point",
					"name":"Light"
				}
			]
		}
	},
	"scene":0,
	"scenes":[
		{
			"name":"Scene",
			"nodes":[
				0,
				1,
				2,
				3
			]
		}
	],
	"nodes":[
		{
			"extensions":{
				"KHR_lights_punctual":{
					"light":0
				}
			},
			"name":"Light",
			"rotation":[
				-0.28416627645492554,
				0.7269423007965088,
				0.34203392267227173,
				0.5232754945755005
			],
			"translation":[
				4.076245307922363,
				5.903861999511719,
				-1.0054539442062378
			]
		},
		{
			"camera":0,
			"name":"Camera",
			"rotation":[
				-0.20997299253940582,
				0.3857799470424652,
				0.09062844514846802,
				0.8937962055206299
			],
			"translation":[
				7.358891487121582,
				4.958309173583984,
				6.925790786743164
			]
		},
		{
			"name":"Empty",
			"rotation":[
				0.5,
				0.5,
				-0.5,
				0.5
			]
		},
		{
			"mesh":0,
			"name":"Plane.005",
			"rotation":[
				0.004152720794081688,
				0.004152720794081688,
				-0.707094669342041,
				0.7070946097373962
			],
			"scale":[
				0.14845871925354004,
				0.14845871925354004,
				0.14845871925354004
			],
			"translation":[
				0,
				0.7576754689216614,
				-1.4506895542144775
			]
		}
	],
	"cameras":[
		{
			"name":"Camera",
			"perspective":{
				"aspectRatio":1.7777777777777777,
				"yfov":0.39959652046304894,
				"zfar":100,
				"znear":0.10000000149011612
			},
			"type":"perspective"
		}
	],
	"meshes":[
		{
			"name":"Plane.005",
			"primitives":[
				{
					"attributes":{
						"POSITION":0,
						"NORMAL":1,
						"TEXCOORD_0":2
					},
					"indices":3
				}
			]
		}
	],
	"accessors":[
		{
			"bufferView":0,
			"componentType":5126,
			"count":3028,
			"max":[
				15.606724739074707,
				1.2867070436477661,
				23.091768264770508
			],
			"min":[
				-8.584299087524414,
				-1.2867070436477661,
				-3.31748366355896
			],
			"type":"VEC3"
		},
		{
			"bufferView":1,
			"componentType":5126,
			"count":3028,
			"type":"VEC3"
		},
		{
			"bufferView":2,
			"componentType":5126,
			"count":3028,
			"type":"VEC2"
		},
		{
			"bufferView":3,
			"componentType":5123,
			"count":5280,
			"type":"SCALAR"
		}
	],
	"bufferViews":[
		{
			"buffer":0,
			"byteLength":36336,
			"byteOffset":0,
			"target":34962
		},
		{
			"buffer":0,
			"byteLength":36336,
			"byteOffset":36336,
			"target":34962
		},
		{
			"buffer":0,
			"byteLength":24224,
			"byteOffset":72672,
			"target":34962
		},
		{
			"buffer":0,
			"byteLength":10560,
			"byteOffset":96896,
			"target":34963
		}
	],
	"buffers":[
		{
			"byteLength":107456,
			"uri":"horse-6d2537e9c1a3c663622ce42bb62d1c83.bin"
		}
	]
}
